# xmcd
#
# Track frame offsets:
#	182
#	15767
#	44097
#	58145
#	80990
#	95087
#	109755
#	137217
#	152165
#	169470
#
# Disc length: 2471 seconds
#
# Revision: 1
# Processed by: cddbd v1.5.2PL0 Copyright (c) Steve Scherf et al.
# Submitted via: audiograbber 1.83.01
#
DISCID=8d09a50a
DTITLE=William Bell - Coming Back for More
DYEAR=1977
DGENRE=R&B
TTITLE0=Tryin' to Love Two
TTITLE1=If Sex Was All We Had
TTITLE2=Relax
TTITLE3=You Don't Miss Your Water
TTITLE4=Malnutrition
TTITLE5=Coming Back for More
TTITLE6=Just Another Way to Feel
TTITLE7=I Absotively, Posulutely Love You
TTITLE8=I Woke Up Cryin'
TTITLE9=You've Really Got a Hold On Me
EXTD=
EXTT0=
EXTT1=
EXTT2=
EXTT3=
EXTT4=
EXTT5=
EXTT6=
EXTT7=
EXTT8=
EXTT9=
PLAYORDER=
